<svg width="32" height="32" viewBox="0 0 32 32" fill="none" xmlns="http://www.w3.org/2000/svg">
<path d="M29 16C29 14.355 27.645 13 26 13H18.656L14.906 4.594L14.656 4H9.876L10 5.125L10.875 13H9.031L7.314 10.437L7.034 10H2.781L3.031 11.188L4 16L3.03 20.813L2.78 22H7.03L7.312 21.562L9.032 19H10.875L10 26.875L9.875 28H14.655L14.905 27.406L18.656 19H26C27.645 19 29 17.645 29 16ZM27 16C27 16.565 26.565 17 26 17H17.344L17.094 17.594L13.344 26H12.124L13 18.125L13.125 17H7.938L7.656 17.438L5.938 20H5.218L5.968 16.187L6.03 16L5.97 15.812L5.22 12H5.94L7.657 14.563L7.939 15H13.125L13 13.875L12.125 6H13.345L17.095 14.406L17.345 15H26C26.565 15 27 15.435 27 16Z" fill="#2E373E"/>
</svg>
